HIERARCHY
ROOT Hips
{
    OFFSET 0.000000 0.000000 0.000000
    CHANNELS 6 Xposition Yposition Zposition Zrotation Xrotation Yrotation
    JOINT Spine
    {
        OFFSET -0.000000 0.083210 0.000000
        CHANNELS 3 Zrotation Xrotation Yrotation
        JOINT Spine1
        {
            OFFSET -0.000000 0.256334 0.000000
            CHANNELS 3 Zrotation Xrotation Yrotation
            JOINT Neck
            {
                OFFSET -0.000000 0.275576 0.002912
                CHANNELS 3 Zrotation Xrotation Yrotation
                JOINT Head
                {
                    OFFSET -0.000000 0.157287 0.020295
                    CHANNELS 3 Zrotation Xrotation Yrotation
                    End Site
                    {
                        OFFSET -0.000000 0.202951 0.000000
                    }
                }
            }
            JOINT LeftShoulder
            {
                OFFSET 0.041044 0.235234 -0.000041
                CHANNELS 3 Zrotation Xrotation Yrotation
                JOINT LeftArm
                {
                    OFFSET 0.117964 0.000000 0.000000
                    CHANNELS 3 Zrotation Xrotation Yrotation
                    JOINT LeftForeArm
                    {
                        OFFSET 0.291248 0.000000 0.000000
                        CHANNELS 3 Zrotation Xrotation Yrotation
                        JOINT LeftHand
                        {
                            OFFSET 0.245673 0.000000 0.000000
                            CHANNELS 3 Zrotation Xrotation Yrotation
                            End Site
                            {
                                OFFSET 0.152213 0.000000 0.000000
                            }
                        }
                    }
                }
            }
            JOINT RightShoulder
            {
                OFFSET -0.040052 0.235234 -0.000041
                CHANNELS 3 Zrotation Xrotation Yrotation
                JOINT RightArm
                {
                    OFFSET -0.117964 0.000000 0.000000
                    CHANNELS 3 Zrotation Xrotation Yrotation
                    JOINT RightForeArm
                    {
                        OFFSET -0.291248 0.000000 0.000000
                        CHANNELS 3 Zrotation Xrotation Yrotation
                        JOINT RightHand
                        {
                            OFFSET -0.245673 0.000000 0.000000
                            CHANNELS 3 Zrotation Xrotation Yrotation
                            End Site
                            {
                                OFFSET -0.152213 0.000000 0.000000
                            }
                        }
                    }
                }
            }
        }
    }
    JOINT LeftUpLeg
    {
        OFFSET 0.101475 0.000000 0.000000
        CHANNELS 3 Zrotation Xrotation Yrotation
        JOINT LeftLeg
        {
            OFFSET -0.000000 -0.446535 0.000000
            CHANNELS 3 Zrotation Xrotation Yrotation
            JOINT LeftFoot
            {
                OFFSET -0.000000 -0.400037 0.000000
                CHANNELS 3 Zrotation Xrotation Yrotation
                JOINT LeftToeBase
                {
                    OFFSET -0.000000 -0.065959 0.152213
                    CHANNELS 3 Zrotation Xrotation Yrotation
                    End Site
                    {
                        OFFSET -0.000000 0.000000 0.040590
                    }
                }
            }
        }
    }
    JOINT RightUpLeg
    {
        OFFSET -0.101475 0.000000 0.000000
        CHANNELS 3 Zrotation Xrotation Yrotation
        JOINT RightLeg
        {
            OFFSET -0.000000 -0.446535 0.000000
            CHANNELS 3 Zrotation Xrotation Yrotation
            JOINT RightFoot
            {
                OFFSET -0.000000 -0.400037 0.000000
                CHANNELS 3 Zrotation Xrotation Yrotation
                JOINT RightToeBase
                {
                    OFFSET -0.000000 -0.065959 0.152213
                    CHANNELS 3 Zrotation Xrotation Yrotation
                    End Site
                    {
                        OFFSET -0.000000 0.000000 0.040590
                    }
                }
            }
        }
    }
}
MOTION
Frames:    9
Frame Time:    0.008333
3.218781    0.999228    -2.109427    1.067538    0.063183    -5.048671    -1.027921    -1.512647    -0.526101    -0.862063    3.127606    -0.147497    2.986471    1.717098    -0.061671    1.759974    2.203166    0.119796    15.361578    -1.695601    0.923056    -24.190388    -0.775850    8.281594    -0.545858    0.279504    -0.944985    11.035944    0.491050    2.233422    -12.253156    -1.422033    5.093168    22.740149    0.036405    -4.235840    -2.188085    -0.858375    0.793780    -0.506522    -0.822908    -4.591322    2.525865    6.374195    3.239881    -0.461895    0.813962    7.215934    -3.853516    -6.462447    -1.250537    -0.064461    3.001142    0.576582    -5.077317    0.958720    11.476339    2.515557    9.208533    2.156582    3.243888    -10.271351    -7.113304    -0.012925    -0.722556    -0.404967    
3.218804    0.999227    -2.109423    1.074156    0.081023    -5.055021    -1.026846    -1.497425    -0.528239    -0.866343    3.101851    -0.148297    2.982489    1.711926    -0.060554    1.773098    2.218513    0.118054    15.339174    -1.797612    0.955114    -24.149382    -0.675494    8.262621    -0.558324    0.299604    -0.927851    11.028793    0.509314    2.216280    -12.246178    -1.245789    5.042059    22.709923    -0.112646    -4.089192    -2.186769    -0.849819    0.779267    -0.369430    -0.820093    -4.608407    2.518698    6.352189    3.249051    -0.461442    0.825864    7.209142    -3.848381    -6.482513    -1.253360    -0.066262    3.023226    0.591682    -5.085577    0.946056    11.485920    2.515926    9.195875    2.141668    3.251474    -10.275707    -7.104023    -0.012578    -0.723025    -0.394038    
3.218813    0.999223    -2.109407    1.080653    0.099209    -5.057617    -1.025735    -1.483253    -0.531222    -0.874372    3.077720    -0.149128    2.990978    1.701218    -0.064166    1.767719    2.236064    0.115611    15.354991    -1.801014    0.943847    -24.155449    -0.679041    8.257843    -0.622182    0.256027    -0.959500    11.451737    0.475118    2.236542    -12.240846    -1.351195    5.107329    22.730265    0.143600    -4.128532    -2.176091    -0.929761    0.635689    -0.449000    -0.900343    -4.435437    2.514830    6.327455    3.252297    -0.464735    0.846068    7.197626    -3.848448    -6.506118    -1.239656    -0.065520    3.023925    0.585032    -5.093249    0.935492    11.492421    2.518606    9.181208    2.150584    3.242555    -10.281809    -7.116272    -0.012931    -0.706496    -0.406946    
3.218827    0.999214    -2.109394    1.086580    0.116455    -5.061628    -1.026586    -1.467959    -0.533362    -0.874849    3.054693    -0.150321    3.009765    1.702564    -0.069058    1.728160    2.227590    0.119370    15.354716    -1.797799    0.930568    -24.150305    -0.680146    8.254145    -0.620247    0.269101    -0.954840    11.438411    0.486520    2.221124    -12.241842    -1.314846    5.108552    22.733988    0.138320    -4.103212    -2.184578    -0.938174    0.631519    -0.454571    -0.908557    -4.421952    2.509373    6.302946    3.244224    -0.464491    0.866753    7.191453    -3.849152    -6.526912    -1.222991    -0.064958    3.011511    0.580565    -5.100634    0.925016    11.499732    2.519431    9.168240    2.140257    3.248016    -10.286136    -7.108150    -0.012953    -0.714065    -0.406781    
3.218826    0.999201    -2.109365    1.089923    0.132486    -5.065372    -1.028085    -1.453959    -0.534524    -0.871581    3.037131    -0.150668    2.997806    1.685150    -0.067016    1.750949    2.244408    0.115765    15.356305    -1.797102    0.914388    -24.142933    -0.690779    8.255598    -0.625328    0.281816    -0.955476    11.425807    0.498202    2.213087    -12.247459    -1.282424    5.104084    22.743443    0.134461    -4.079229    -2.199582    -0.955859    0.640794    -0.450086    -0.926188    -4.435844    2.508758    6.279995    3.246530    -0.467066    0.891043    7.175427    -3.849081    -6.555540    -1.209668    -0.065683    3.003595    0.587404    -5.105285    0.918562    11.518148    2.523106    9.151092    2.140388    3.237564    -10.290996    -7.122252    -0.013276    -0.708601    -0.417550    
3.218831    0.999191    -2.109335    1.088753    0.148748    -5.067112    -1.023773    -1.440288    -0.534483    -0.870960    3.023757    -0.150835    2.975647    1.656808    -0.074340    1.786949    2.265753    0.098600    15.362885    -1.800785    0.900170    -24.142622    -0.690302    8.252332    -0.623073    0.281074    -0.953590    11.406183    0.496343    2.205065    -12.256678    -1.247368    5.103481    22.754932    0.106967    -4.064509    -2.210929    -0.971121    0.655297    -0.448555    -0.941089    -4.454757    2.512516    6.256696    3.235997    -0.469892    0.915247    7.165315    -3.839202    -6.583693    -1.193768    -0.067005    2.999622    0.599413    -5.105113    0.911095    11.526281    2.524431    9.138227    2.125010    3.243353    -10.300849    -7.113433    -0.013036    -0.706679    -0.410222    
3.218817    0.999182    -2.109290    1.088540    0.162644    -5.069454    -1.021358    -1.426257    -0.535029    -0.873862    3.013635    -0.151062    2.995883    1.643943    -0.081669    1.745101    2.256465    0.099811    15.370102    -1.798635    0.897472    -24.141094    -0.681152    8.234324    -0.585970    0.251893    -0.980920    10.870086    0.458139    2.217759    -12.272224    -1.108041    5.071827    22.767014    -0.016994    -3.966950    -2.213347    -0.969280    0.664956    -0.552366    -0.934634    -4.532794    2.517447    6.233494    3.241063    -0.475548    0.948005    7.132987    -3.835899    -6.621094    -1.164749    -0.066191    2.998456    0.592181    -5.101899    0.906448    11.528543    2.520759    9.128445    2.138160    3.240046    -10.311947    -7.129670    -0.013041    -0.704827    -0.410584    
3.218823    0.999167    -2.109243    1.090592    0.175332    -5.074258    -1.017348    -1.408469    -0.532282    -0.880579    3.001790    -0.150216    2.996546    1.623032    -0.086769    1.742135    2.259986    0.094497    15.373920    -1.787026    0.894325    -24.134670    -0.686459    8.215116    -0.565621    0.209063    -1.044931    10.452459    0.423089    2.397015    -12.268154    -1.227808    5.114164    22.780073    0.069080    -4.075901    -2.219012    -0.963938    0.707913    -0.543203    -0.928614    -4.551578    2.516345    6.212527    3.226992    -0.475901    0.978588    7.138399    -3.836081    -6.655477    -1.152786    -0.065371    2.994648    0.585016    -5.104814    0.898631    11.537992    2.520745    9.126054    2.159336    3.235492    -10.331847    -7.148709    -0.013388    -0.697121    -0.422430    
3.218820    0.999149    -2.109192    1.088164    0.188644    -5.083985    -1.008263    -1.388078    -0.528597    -0.889325    2.981926    -0.148957    2.982938    1.603716    -0.089236    1.766948    2.273040    0.085545    15.376740    -1.772372    0.882045    -24.128946    -0.677828    8.211868    -0.590756    0.265457    -0.984830    11.257517    0.484865    2.277483    -12.271441    -1.233491    5.132828    22.792036    0.060392    -4.095421    -2.227328    -0.957966    0.730490    -0.539298    -0.922155    -4.590929    2.520404    6.187541    3.231389    -0.477088    1.017760    7.128345    -3.834682    -6.695071    -1.143806    -0.065762    2.992776    0.588599    -5.100824    0.888341    11.551382    2.518879    9.126414    2.154809    3.230641    -10.346109    -7.147013    -0.013195    -0.697242    -0.416307    
